<svg width="30" height="30" viewBox="0 0 30 30" fill="none" xmlns="http://www.w3.org/2000/svg">
<path d="M11.4933 7.00008C11.6854 6.9995 11.8752 7.03718 12.0488 7.11034C12.2224 7.18351 12.3753 7.29031 12.4963 7.42289L18.7075 14.2794C18.8966 14.4839 19 14.7403 19 15.005C19 15.2697 18.8966 15.5262 18.7075 15.7307L12.2777 22.5872C12.0595 22.8205 11.7458 22.9673 11.4058 22.9952C11.0657 23.023 10.7272 22.9297 10.4646 22.7357C10.2019 22.5418 10.0368 22.263 10.0054 21.9609C9.97409 21.6587 10.0791 21.3578 10.2974 21.1245L16.0456 14.9993L10.4903 8.87419C10.333 8.70645 10.2331 8.50219 10.2024 8.28559C10.1717 8.06898 10.2115 7.84909 10.317 7.65193C10.4225 7.45477 10.5894 7.28861 10.7978 7.17308C11.0063 7.05756 11.2476 6.99753 11.4933 7.00008Z" fill="black"/>
</svg>
