<svg width="30" height="30" viewBox="0 0 30 30" fill="none" xmlns="http://www.w3.org/2000/svg">
<path d="M22.9999 11.4933C23.0005 11.6854 22.9628 11.8752 22.8897 12.0488C22.8165 12.2224 22.7097 12.3753 22.5771 12.4963L15.7206 18.7075C15.5161 18.8966 15.2597 19 14.995 19C14.7303 19 14.4738 18.8966 14.2693 18.7075L7.41282 12.2777C7.17945 12.0595 7.0327 11.7458 7.00484 11.4058C6.97698 11.0657 7.07029 10.7272 7.26426 10.4646C7.45823 10.2019 7.73696 10.0368 8.03913 10.0054C8.34131 9.97409 8.64217 10.0791 8.87554 10.2974L15.0007 16.0456L21.1258 10.4903C21.2936 10.333 21.4978 10.2331 21.7144 10.2024C21.931 10.1717 22.1509 10.2115 22.3481 10.317C22.5452 10.4225 22.7114 10.5894 22.8269 10.7978C22.9424 11.0063 23.0025 11.2476 22.9999 11.4933Z" fill="black"/>
</svg>
