<svg width="24" height="24" viewBox="0 0 24 24" fill="none" xmlns="http://www.w3.org/2000/svg">
<path d="M18.9999 9.32738C19.0004 9.49815 18.9675 9.66688 18.9034 9.82117C18.8394 9.97546 18.746 10.1114 18.63 10.219L12.6305 15.74C12.4516 15.9081 12.2272 16 11.9956 16C11.764 16 11.5396 15.9081 11.3607 15.74L5.36122 10.0247C5.15702 9.83063 5.02861 9.55182 5.00423 9.24957C4.97985 8.94731 5.06151 8.64637 5.23123 8.41293C5.40095 8.1795 5.64484 8.0327 5.90924 8.00484C6.17364 7.97697 6.4369 8.07031 6.6411 8.26434L12.0006 13.3738L17.3601 8.4358C17.5069 8.29602 17.6856 8.20723 17.8751 8.17993C18.0646 8.15264 18.257 8.18798 18.4296 8.28177C18.6021 8.37557 18.7475 8.52389 18.8486 8.70919C18.9496 8.89449 19.0022 9.10902 18.9999 9.32738Z" fill="#BBBBBB"/>
</svg>
