<svg width="30" height="30" viewBox="0 0 30 30" fill="none" xmlns="http://www.w3.org/2000/svg">
<path d="M7.00008 17.5067C6.9995 17.3146 7.03718 17.1248 7.11034 16.9512C7.18351 16.7776 7.29031 16.6247 7.4229 16.5037L14.2794 10.2925C14.4839 10.1034 14.7403 10 15.005 10C15.2697 10 15.5262 10.1034 15.7307 10.2925L22.5872 16.7223C22.8205 16.9405 22.9673 17.2542 22.9952 17.5942C23.023 17.9343 22.9297 18.2728 22.7357 18.5354C22.5418 18.7981 22.263 18.9632 21.9609 18.9946C21.6587 19.0259 21.3578 18.9209 21.1245 18.7026L14.9993 12.9544L8.87419 18.5097C8.70645 18.667 8.50219 18.7669 8.28559 18.7976C8.06898 18.8283 7.84909 18.7885 7.65193 18.683C7.45478 18.5775 7.28861 18.4106 7.17308 18.2022C7.05756 17.9937 6.99753 17.7524 7.00008 17.5067Z" fill="black"/>
</svg>
