<svg width="30" height="30" viewBox="0 0 30 30" fill="none" xmlns="http://www.w3.org/2000/svg">
<path d="M17.5067 22.9999C17.3146 23.0005 17.1248 22.9628 16.9512 22.8897C16.7776 22.8165 16.6247 22.7097 16.5037 22.5771L10.2925 15.7206C10.1034 15.5161 10 15.2597 10 14.995C10 14.7303 10.1034 14.4738 10.2925 14.2693L16.7223 7.41282C16.9405 7.17945 17.2542 7.0327 17.5942 7.00484C17.9343 6.97698 18.2728 7.07029 18.5354 7.26426C18.7981 7.45823 18.9632 7.73696 18.9946 8.03913C19.0259 8.34131 18.9209 8.64217 18.7026 8.87554L12.9544 15.0007L18.5097 21.1258C18.667 21.2936 18.7669 21.4978 18.7976 21.7144C18.8283 21.931 18.7885 22.1509 18.683 22.3481C18.5775 22.5452 18.4106 22.7114 18.2022 22.8269C17.9937 22.9424 17.7524 23.0025 17.5067 22.9999Z" fill="black"/>
</svg>
