<svg width="30" height="30" viewBox="0 0 30 30" fill="none" xmlns="http://www.w3.org/2000/svg">
<path d="M22.2163 18.6766C21.8779 17.5793 21.705 16.4316 21.704 15.2763V12.4218C21.7286 10.6131 21.1244 8.85885 20.0081 7.49854C18.8957 6.13608 17.3517 5.26005 15.6721 5.03833C14.7439 4.93547 13.7996 5.03833 12.9035 5.36265C12.0074 5.66981 11.1916 6.18271 10.5041 6.86706C9.81326 7.53375 9.26259 8.34938 8.88849 9.26011C8.51253 10.1705 8.31629 11.1539 8.31205 12.1489V15.292C8.31008 16.4426 8.13719 17.5854 7.7998 18.678L7 21.2054L7.64064 22.1455H12.3284C12.3284 22.897 12.616 23.6313 13.1122 24.1628C13.607 24.6914 14.2958 25 15.0007 25C15.7042 25 16.3916 24.6928 16.8878 24.1628C17.384 23.6327 17.6729 22.897 17.6729 22.1455H22.3607L23 21.2054L22.2163 18.6766ZM15.9436 23.1727C15.8205 23.3068 15.6739 23.4135 15.512 23.4869C15.3502 23.5602 15.1764 23.5986 15.0007 23.5999C14.8246 23.5986 14.6505 23.56 14.4884 23.4865C14.3263 23.4129 14.1795 23.3058 14.0564 23.1713C13.9307 23.0399 13.8305 22.8833 13.7616 22.7105C13.6928 22.5376 13.6566 22.3519 13.6552 22.164H16.3288C16.3343 22.3515 16.3031 22.5381 16.2369 22.7118C16.1708 22.8856 16.0713 23.0426 15.9449 23.1727H15.9436ZM8.5675 20.7296L9.0637 19.1381C9.45064 17.8982 9.65063 16.6005 9.65619 15.2935V12.1489C9.65619 11.3446 9.81669 10.5588 10.1203 9.84016C10.4239 9.10582 10.8559 8.45576 11.4163 7.92572C11.9767 7.37996 12.6334 6.96849 13.3369 6.7299C14.0564 6.47274 14.8081 6.38702 15.5437 6.47274C16.8919 6.6621 18.1279 7.37391 19.0171 8.47291C19.9064 9.57327 20.3846 10.9854 20.3599 12.439V15.3106C20.3599 16.6093 20.5525 17.908 20.9524 19.1552L21.4486 20.7454H8.56884V20.7282L8.5675 20.7296Z" fill="black"/>
</svg>
