<svg width="180" height="140" viewBox="0 0 180 140" fill="none" xmlns="http://www.w3.org/2000/svg">
<g clip-path="url(#clip0_140_867)">
<path d="M15.9273 139.116H6.16598V137.99C7.13082 138.067 8.09917 137.893 8.9779 137.487C9.21813 137.321 9.40981 137.094 9.53334 136.829C9.65687 136.564 9.70776 136.271 9.68082 135.98V116.402C9.71204 116.078 9.66448 115.752 9.54205 115.451C9.41961 115.15 9.226 114.883 8.9779 114.673C8.10398 114.25 7.13453 114.063 6.16598 114.131V112.965H15.9273V114.131C15.1606 114.128 14.3971 114.229 13.6577 114.432C12.6133 114.774 12.3722 115.377 12.3722 116.442V135.98C12.3322 136.264 12.3689 136.553 12.4784 136.819C12.5879 137.084 12.7662 137.315 12.9949 137.487C13.9169 137.891 14.9235 138.064 15.9273 137.99V139.116Z" fill="#595757" stroke="#595757" stroke-width="0.25" stroke-miterlimit="10"/>
<path d="M46.5967 114.07C43.7045 114.07 43.1623 114.714 43.1623 115.578C43.1623 115.578 43.1623 115.739 43.1623 116V139.236H41.9973C35.9719 131.719 29.9464 124.261 23.921 116.744V135.658C23.8782 135.985 23.9162 136.317 24.0318 136.626C24.1474 136.934 24.337 137.209 24.5838 137.427C25.4317 137.84 26.3761 138.014 27.3153 137.93V139.116H18.7793V137.99C19.7218 138.055 20.6645 137.868 21.5108 137.447C21.7589 137.237 21.9525 136.971 22.0749 136.67C22.1974 136.368 22.2451 136.042 22.2138 135.719V116.08C22.2138 114.834 21.4305 114.191 18.7793 114.191V112.905H24.0214L41.435 134.01V116.08C41.4699 115.779 41.4186 115.473 41.287 115.199C41.1555 114.925 40.9491 114.694 40.6918 114.533C39.8709 114.172 38.9755 114.013 38.0808 114.07V112.905H46.5164L46.5967 114.07Z" fill="#595757" stroke="#595757" stroke-width="0.25" stroke-miterlimit="10"/>
<path d="M69.9754 132.402C70.0198 133.437 69.8105 134.467 69.3659 135.402C68.9213 136.338 68.2548 137.15 67.4246 137.769C65.5163 139.19 63.1724 139.901 60.7967 139.779C58.6956 139.753 56.6154 139.359 54.6507 138.613C53.7352 138.83 52.8462 139.147 51.9995 139.558C51.0154 137.186 49.991 134.894 48.9868 132.482L50.0513 131.96C51.1143 133.618 52.4765 135.063 54.0683 136.221C56.0833 137.466 58.3897 138.159 60.7566 138.231C62.4986 138.328 64.2211 137.824 65.6372 136.804C66.2062 136.339 66.6601 135.749 66.9632 135.079C67.2663 134.41 67.4105 133.679 67.3845 132.945C67.367 132.315 67.2081 131.697 66.9196 131.137C66.631 130.576 66.2201 130.088 65.7175 129.709C63.6992 128.492 61.5135 127.577 59.2301 126.995C57.0759 126.369 55.04 125.391 53.2047 124.1C52.3179 123.584 51.5776 122.85 51.0539 121.967C50.5301 121.084 50.2404 120.082 50.2121 119.055C50.1894 118.107 50.3968 117.167 50.8165 116.316C51.2363 115.466 51.8558 114.729 52.6221 114.171C54.3589 112.88 56.4865 112.227 58.6476 112.322C59.8212 112.32 60.9898 112.476 62.1223 112.784C62.745 112.965 63.3274 113.186 63.8295 113.387L66.2999 112.623C67.284 114.915 68.3084 117.186 69.2725 119.477C68.964 119.595 68.6623 119.729 68.3687 119.879C67.3154 118.208 65.9518 116.755 64.3517 115.598C62.6557 114.413 60.6356 113.781 58.5673 113.789C57.2834 113.783 56.0238 114.138 54.9319 114.814C54.2507 115.207 53.688 115.777 53.3027 116.463C52.9175 117.149 52.724 117.927 52.7426 118.714C52.7765 119.477 53.0218 120.216 53.4509 120.847C53.8801 121.479 54.4763 121.979 55.1729 122.291C56.8768 123.217 58.6834 123.939 60.5557 124.442C63.0479 125.085 65.4212 126.123 67.5853 127.518C68.3569 128.07 68.9794 128.805 69.3966 129.658C69.8138 130.51 70.0126 131.453 69.9754 132.402Z" fill="#595757" stroke="#595757" stroke-width="0.25" stroke-miterlimit="10"/>
<path d="M95.6439 132.201L96.5476 132.663C95.6036 134.874 94.8204 137.025 93.8764 139.116H72.5864V137.99C73.5441 138.055 74.5015 137.861 75.3581 137.427C75.5948 137.213 75.7807 136.948 75.9023 136.652C76.0239 136.357 76.0782 136.038 76.0612 135.719V116.402C76.0657 116.155 76.0249 115.91 75.9407 115.678C75.8337 115.383 75.6622 115.115 75.4386 114.895C74.5921 114.351 73.5869 114.111 72.5864 114.211V112.965H92.9122C93.8763 115.116 94.74 117.226 95.684 119.357C95.4182 119.526 95.1434 119.68 94.8605 119.819C93.8813 118.119 92.5025 116.684 90.8436 115.638C89.3046 114.715 87.5357 114.248 85.7421 114.291H81.3635C80.6124 114.261 79.8679 114.442 79.2145 114.814C78.9923 115.01 78.8199 115.257 78.7117 115.533C78.6034 115.809 78.5623 116.107 78.5919 116.402V124.864H84.798C85.284 124.921 85.7763 124.879 86.2457 124.741C86.715 124.603 87.1517 124.371 87.5295 124.06C88.2851 122.992 88.6212 121.682 88.4736 120.382H89.7188V130.794H88.4736C88.6457 129.467 88.3083 128.123 87.5295 127.035C86.7577 126.424 85.7762 126.142 84.798 126.251H78.5919V135.759C78.5606 136.066 78.6005 136.376 78.7085 136.666C78.8164 136.955 78.9896 137.216 79.2145 137.427C79.8882 137.819 80.6685 137.988 81.4439 137.91H86.204C87.9636 138 89.716 137.626 91.2854 136.824C93.0368 135.595 94.5199 134.022 95.6439 132.201Z" fill="#595757" stroke="#595757" stroke-width="0.25" stroke-miterlimit="10"/>
<path d="M124.285 126.03C124.376 127.873 124.089 129.715 123.443 131.443C122.798 133.171 121.806 134.749 120.529 136.08C119.395 137.257 118.037 138.192 116.534 138.831C115.031 139.471 113.415 139.8 111.782 139.8C110.149 139.8 108.533 139.471 107.03 138.831C105.527 138.192 104.169 137.257 103.035 136.08C100.613 133.313 99.2774 129.759 99.2774 126.08C99.2774 122.401 100.613 118.848 103.035 116.08C104.161 114.891 105.517 113.944 107.021 113.297C108.525 112.65 110.145 112.316 111.782 112.316C113.419 112.316 115.039 112.65 116.543 113.297C118.046 113.944 119.403 114.891 120.529 116.08C121.793 117.4 122.778 118.961 123.423 120.671C124.069 122.381 124.362 124.204 124.285 126.03ZM121.393 126.03C121.514 122.862 120.502 119.755 118.54 117.266C117.771 116.192 116.756 115.316 115.581 114.712C114.405 114.107 113.103 113.792 111.782 113.792C110.461 113.792 109.158 114.107 107.983 114.712C106.808 115.316 105.793 116.192 105.023 117.266C103.147 119.783 102.134 122.84 102.134 125.98C102.134 129.12 103.147 132.176 105.023 134.693C105.799 135.758 106.809 136.63 107.976 137.24C109.143 137.85 110.435 138.182 111.752 138.211C113.075 138.203 114.377 137.88 115.551 137.268C116.724 136.656 117.735 135.774 118.5 134.693C120.479 132.251 121.507 129.173 121.393 126.03Z" fill="#595757" stroke="#595757" stroke-width="0.25" stroke-miterlimit="10"/>
<path d="M154.653 114.151C153.638 114.071 152.618 114.236 151.68 114.633C151.462 114.815 151.291 115.047 151.183 115.31C151.074 115.573 151.031 115.858 151.058 116.141V130.935C151.172 133.126 150.454 135.28 149.049 136.965C147.282 138.975 144.43 139.819 140.493 139.819C137.893 139.939 135.338 139.11 133.303 137.487C132.335 136.632 131.569 135.57 131.062 134.381C130.554 133.192 130.318 131.905 130.37 130.613V116.241C130.405 115.939 130.354 115.634 130.223 115.36C130.091 115.086 129.885 114.855 129.627 114.693C128.649 114.292 127.589 114.126 126.534 114.211V112.965H136.858V114.211C135.79 114.123 134.717 114.288 133.725 114.693C133.499 114.878 133.323 115.117 133.214 115.387C133.105 115.658 133.067 115.952 133.102 116.241V130.834C133.04 131.861 133.213 132.889 133.606 133.839C133.999 134.79 134.603 135.639 135.372 136.322C137.097 137.722 139.278 138.438 141.497 138.332C143.253 138.384 144.978 137.87 146.418 136.864C147.376 136.214 148.152 135.33 148.672 134.296C149.192 133.262 149.44 132.112 149.391 130.955V116.281C149.416 115.991 149.364 115.698 149.24 115.434C149.117 115.169 148.926 114.942 148.688 114.774C147.75 114.377 146.73 114.211 145.715 114.291V113.045H154.713L154.653 114.151Z" fill="#595757" stroke="#595757" stroke-width="0.25" stroke-miterlimit="10"/>
<path d="M179.658 132.623L176.806 139.156H156.521V137.99C157.569 138.057 158.618 137.864 159.574 137.427C159.817 137.245 160.01 137.004 160.133 136.725C160.257 136.447 160.306 136.142 160.277 135.839V116.322C160.321 116.007 160.283 115.686 160.166 115.39C160.05 115.095 159.86 114.834 159.614 114.633C158.64 114.212 157.578 114.039 156.521 114.131V112.925H166.965V114.131C165.816 114.01 164.655 114.183 163.591 114.633C163.356 114.843 163.173 115.105 163.058 115.398C162.943 115.692 162.898 116.008 162.928 116.322V135.879C162.899 136.163 162.93 136.449 163.021 136.72C163.111 136.99 163.257 137.238 163.45 137.447C164.062 137.791 164.759 137.951 165.459 137.91H170.058C171.733 137.965 173.381 137.479 174.758 136.523C176.354 135.397 177.662 133.909 178.574 132.181L179.658 132.623Z" fill="#595757" stroke="#595757" stroke-width="0.25" stroke-miterlimit="10"/>
<path d="M141.056 66.995C137.999 67.6817 134.799 67.2912 131.997 65.8895C128.804 64.5226 8.11648e-05 1.52588e-05 8.11648e-05 1.52588e-05C8.11648e-05 1.52588e-05 -0.642623 13.5879 6.28663 18.4523C13.2159 23.3166 116.231 73.1457 116.231 73.1457C116.231 73.1457 133.504 79.4171 141.056 66.995Z" fill="url(#paint0_linear_140_867)"/>
<path d="M125.108 78.4523C122.052 79.139 118.852 78.7485 116.05 77.3467C112.836 75.9799 10.9663 25.4271 10.9663 25.4271C10.9663 25.4271 10.3236 38.995 17.2529 43.8794C24.1821 48.7638 100.283 84.603 100.283 84.603C100.283 84.603 117.556 90.8744 125.108 78.4523Z" fill="#5BB9D1"/>
<path d="M108.378 89.8895C105.324 90.5908 102.121 90.2071 99.3194 88.804C96.1058 87.4171 25.809 52.6231 25.809 52.6231C25.809 52.6231 25.1864 66.211 32.0956 71.0754C39.0048 75.9397 83.5528 96.0804 83.5528 96.0804C83.5528 96.0804 100.826 102.312 108.378 89.8895Z" fill="#5BB9D1"/>
<path d="M127.237 59.3166L152.705 46.6131C152.705 46.6131 161.924 40.9648 160.839 26.3317L111.611 51.2764L127.237 59.3166Z" fill="#5A6DFE"/>
<path d="M107.815 49.5477L165.88 20.3618C165.88 20.3618 175.099 14.7136 173.914 0.0603104L92.2093 41.5075L107.815 49.5477Z" fill="#5A6DFE"/>
</g>
<defs>
<linearGradient id="paint0_linear_140_867" x1="-0.0156549" y1="36.8229" x2="141.056" y2="36.8229" gradientUnits="userSpaceOnUse">
<stop stop-color="#5BBACF"/>
<stop offset="1" stop-color="#596AFF"/>
</linearGradient>
<clipPath id="clip0_140_867">
<rect width="180" height="140" fill="white"/>
</clipPath>
</defs>
</svg>
