<svg width="24" height="24" viewBox="0 0 24 24" fill="none" xmlns="http://www.w3.org/2000/svg">
<g clip-path="url(#clip0_174_995)">
<path d="M21 23.25V3C21 2.20435 20.6839 1.44129 20.1213 0.87868C19.5587 0.316071 18.7956 0 18 0H6C5.20435 0 4.44129 0.316071 3.87868 0.87868C3.31607 1.44129 3 2.20435 3 3V23.25C2.9999 23.3802 3.03373 23.5083 3.09814 23.6215C3.16255 23.7347 3.25532 23.8291 3.36734 23.8956C3.47935 23.962 3.60674 23.9982 3.73696 24.0004C3.86718 24.0027 3.99574 23.971 4.11 23.9085L21 23.25ZM21 23.25C21.0001 23.3802 20.9663 23.5083 20.9019 23.6215M21 23.25L20.9019 23.6215M20.9019 23.6215C20.8375 23.7347 20.7447 23.8291 20.6327 23.8956M20.9019 23.6215L20.6327 23.8956M20.6327 23.8956C20.5207 23.962 20.3933 23.9982 20.263 24.0004M20.6327 23.8956L20.263 24.0004M20.263 24.0004C20.1328 24.0027 20.0043 23.971 19.89 23.9085L20.263 24.0004ZM3.5 23.2504V23.25V3C3.5 2.33696 3.76339 1.70107 4.23223 1.23223C4.70107 0.763392 5.33696 0.5 6 0.5H18C18.663 0.5 19.2989 0.763392 19.7678 1.23223C20.2366 1.70107 20.5 2.33696 20.5 3V23.25V23.2504C20.5 23.2938 20.4888 23.3365 20.4673 23.3742C20.4458 23.4119 20.4149 23.4434 20.3776 23.4656C20.3402 23.4877 20.2978 23.4998 20.2544 23.5005C20.2109 23.5013 20.1681 23.4907 20.13 23.4699L20.1295 23.4696L12.2395 19.1646L12 19.0339L11.7605 19.1646L3.87052 23.4696L3.87 23.4699C3.83192 23.4907 3.78906 23.5013 3.74565 23.5005C3.70225 23.4998 3.65979 23.4877 3.62244 23.4656C3.58511 23.4434 3.55418 23.4119 3.53271 23.3742C3.51124 23.3365 3.49997 23.2938 3.5 23.2504Z" fill="#FFC700" stroke="#333333"/>
<path d="M11.76 6.15C11.7819 6.10502 11.816 6.06711 11.8584 6.04058C11.9009 6.01406 11.9499 6 12 6C12.05 6 12.099 6.01406 12.1415 6.04058C12.1839 6.06711 12.218 6.10502 12.24 6.15L13.191 8.0775C13.21 8.11649 13.2382 8.15025 13.2733 8.17587C13.3083 8.20148 13.349 8.21817 13.392 8.2245L15.522 8.5335C15.7395 8.565 15.828 8.8335 15.669 8.988L14.13 10.4895C14.0989 10.5198 14.0757 10.5572 14.0624 10.5985C14.0491 10.6398 14.046 10.6838 14.0535 10.7265L14.4165 12.8475C14.4246 12.8965 14.4189 12.9468 14.4001 12.9927C14.3813 13.0386 14.35 13.0784 14.3098 13.1075C14.2696 13.1367 14.222 13.154 14.1725 13.1576C14.123 13.1613 14.0735 13.151 14.0295 13.128L12.1245 12.126C12.0863 12.106 12.0438 12.0956 12.0007 12.0956C11.9576 12.0956 11.9151 12.106 11.877 12.126L9.97195 13.128C9.92799 13.1506 9.87863 13.1605 9.82936 13.1567C9.78009 13.1529 9.73284 13.1355 9.69288 13.1064C9.65292 13.0773 9.62181 13.0377 9.60302 12.992C9.58423 12.9463 9.5785 12.8963 9.58645 12.8475L9.94945 10.7265C9.95711 10.6839 9.95428 10.64 9.94122 10.5987C9.92815 10.5575 9.90524 10.52 9.87445 10.4895L8.32945 8.988C8.29406 8.95325 8.26905 8.90934 8.25722 8.86117C8.24539 8.81301 8.24721 8.7625 8.26247 8.71531C8.27773 8.66812 8.30584 8.62612 8.34363 8.59401C8.38143 8.56189 8.42742 8.54094 8.47645 8.5335L10.6065 8.2245C10.6494 8.21817 10.6901 8.20148 10.7251 8.17587C10.7602 8.15025 10.7884 8.11649 10.8075 8.0775L11.76 6.15Z" fill="#333333"/>
</g>
<defs>
<clipPath id="clip0_174_995">
<rect width="24" height="24" fill="white"/>
</clipPath>
</defs>
</svg>
