<svg width="24" height="24" viewBox="0 0 24 24" fill="none" xmlns="http://www.w3.org/2000/svg">
<path d="M18.2846 4.8H17.3293V3H15.4187V4.8H7.77644V3H5.86586V4.8H4.91057C4.40386 4.8 3.9179 4.98964 3.55959 5.32721C3.20129 5.66477 3 6.12261 3 6.6V19.2C3 19.6774 3.20129 20.1352 3.55959 20.4728C3.9179 20.8104 4.40386 21 4.91057 21H9.68701V19.2H4.91057V9.3H18.2846V10.2H20.1952V6.6C20.1952 6.12261 19.9939 5.66477 19.6356 5.32721C19.2773 4.98964 18.7913 4.8 18.2846 4.8ZM20.8639 14.115L19.9086 15.015L17.9502 13.215L18.9055 12.315C19.0966 12.126 19.4214 12.117 19.6411 12.315L20.8639 13.467C21.0454 13.647 21.0454 13.935 20.8639 14.115ZM11.5976 19.146L17.3962 13.692L19.3545 15.492L13.5655 21H11.5976V19.146Z" fill="black"/>
</svg>
