<svg width="30" height="30" viewBox="0 0 30 30" fill="none" xmlns="http://www.w3.org/2000/svg">
<path d="M24.2 23.1H5.8C5.3575 23.1 5 23.4575 5 23.9V24.8C5 24.91 5.09 25 5.2 25H24.8C24.91 25 25 24.91 25 24.8V23.9C25 23.4575 24.6425 23.1 24.2 23.1ZM8.6425 21C8.6925 21 8.7425 20.995 8.7925 20.9875L12.9975 20.25C13.0475 20.24 13.095 20.2175 13.13 20.18L23.7275 9.5825C23.7507 9.55937 23.7691 9.5319 23.7816 9.50166C23.7942 9.47141 23.8006 9.43899 23.8006 9.40625C23.8006 9.37351 23.7942 9.34109 23.7816 9.31084C23.7691 9.2806 23.7507 9.25313 23.7275 9.23L19.5725 5.0725C19.525 5.025 19.4625 5 19.395 5C19.3275 5 19.265 5.025 19.2175 5.0725L8.62 15.67C8.5825 15.7075 8.56 15.7525 8.55 15.8025L7.8125 20.0075C7.78818 20.1414 7.79687 20.2793 7.83782 20.4091C7.87877 20.5389 7.95074 20.6568 8.0475 20.7525C8.2125 20.9125 8.42 21 8.6425 21Z" fill="#0085FF"/>
</svg>
