<svg width="16" height="16" viewBox="0 0 16 16" fill="none" xmlns="http://www.w3.org/2000/svg">
<path d="M6.21834 3.33338C6.33218 3.33304 6.44467 3.35502 6.54753 3.3977C6.65039 3.44039 6.74101 3.50269 6.81273 3.58003L10.4934 7.57965C10.6055 7.69893 10.6667 7.84854 10.6667 8.00294C10.6667 8.15734 10.6055 8.30696 10.4934 8.42624L6.68318 12.4259C6.55384 12.562 6.36797 12.6476 6.16646 12.6639C5.96496 12.6801 5.76433 12.6257 5.6087 12.5125C5.45308 12.3994 5.35522 12.2368 5.33664 12.0605C5.31806 11.8842 5.38029 11.7087 5.50964 11.5726L8.91597 7.99961L5.62395 4.42661C5.53076 4.32877 5.47157 4.20962 5.45337 4.08326C5.43517 3.95691 5.45873 3.82864 5.52126 3.71363C5.58379 3.59862 5.68268 3.50169 5.80621 3.4343C5.92975 3.36692 6.07276 3.33189 6.21834 3.33338Z" fill="#0085FF"/>
</svg>
