<svg width="24" height="24" viewBox="0 0 24 24" fill="none" xmlns="http://www.w3.org/2000/svg">
<path d="M9.32739 5.00007C9.49815 4.99956 9.66688 5.03253 9.82117 5.09655C9.97546 5.16057 10.1114 5.25402 10.219 5.37003L15.74 11.3695C15.9081 11.5484 16 11.7728 16 12.0044C16 12.236 15.9081 12.4604 15.74 12.6393L10.0247 18.6388C9.83063 18.843 9.55182 18.9714 9.24957 18.9958C8.94731 19.0201 8.64637 18.9385 8.41293 18.7688C8.1795 18.599 8.0327 18.3552 8.00484 18.0908C7.97697 17.8264 8.07031 17.5631 8.26434 17.3589L13.3738 11.9994L8.4358 6.63991C8.29602 6.49314 8.20723 6.31442 8.17993 6.12489C8.15264 5.93536 8.18798 5.74295 8.28177 5.57044C8.37557 5.39793 8.52389 5.25253 8.70919 5.15145C8.8945 5.05037 9.10902 4.99784 9.32739 5.00007Z" fill="#52DEFF"/>
</svg>
